<svg version="1.2" xmlns="http://www.w3.org/2000/svg" viewBox="0 0 290 290" width="500" height="500">
	<style>
		.s0 { fill: #ffffff } 
	</style>
	<g>
		<path class="s0" d="m148.77 37.26c3.45-8.75 7.1-18.38 14.78-24.26 1.25 0.88 2.56 1.66 3.96 2.27-4.17 7.71-8.41 15.42-11.49 23.63-2.51 2.1-5.37 0.29-7.25-1.64z"/>
		<path class="s0" d="m96.29 27.27c1.61-2.95 5.68-2.73 7.83-0.52 4.62 4.53 8.26 10.33 9.29 16.79 0.37 1.99-1.72 2.92-2.88 4.11-6.92-4.83-8.5-14.27-14.24-20.38z"/>
		<path class="s0" d="m201.79 49.56c7.68-7.1 14.72-15.87 25.03-19.17 2-0.91 3.83 0.36 5.08 1.83-3.78 3.75-8.31 6.58-12.33 10.05-4.41 3.63-7.25 8.82-11.84 12.26-2.79 2.75-9.65-1.58-5.94-4.97z"/>
		<path class="s0" d="m46.35 56.43c-2.72-2.53 1.68-5.2 4.19-4.27 7.54 1.7 14.13 6.35 20 11.22 2.02 1.27 0.35 3.21-0.83 4.33-8.35-2.53-15.29-8.08-23.36-11.28z"/>
		<g>
			<path class="s0" d="m108.4 62.14c9.42-3.81 18.8-8.63 29.14-9.12 15.55 1.34 31.72 3.58 45.22 12.06 21.23 14.45 33.27 40.77 31.92 66.24-1.17 22.54-9.43 44.13-10.94 66.63 9.01-0.52 14.75 9.41 9.92 16.98 3.2 0.26 6.97 0.32 9.17 3.06 1.87 3.89 0.22 8.35-2.29 11.55 1.76 1.9 3.95 3.33 5.74 5.22 1.38 2.76-0.55 5.81-2.43 7.82-3.73 3.81-7.65 7.9-12.97 9.33-0.17 5.07 0.61 11.17-4.11 14.56-4 1.8-8.07 3.58-12.26 4.91-5.59 1.31-9.84-3.03-13.9-6.05-4.41 2.26-8.73 4.72-13.26 6.73-2.99-1.37-6.02-1.43-8.96 0.11-7.08-0.49-12.69-9.81-7.95-16.01-5.85-1.26-11.7-9.56-5.59-14.07-4-0.91-10.15-1.56-10.47-6.81 0.05-5.61 4.88-9.08 9.15-11.78-6.34-1.82-12.23-4.92-17.93-8.19-6.52-3.95-8.86-11.76-14.35-16.65-9.4-7.17-17.71-15.61-25.8-24.2-7.78-8.3-11.45-19.41-13.76-30.32-4.29-16.23-5.54-34.59 2.88-49.74 8.25-13.37 19.16-25.86 33.83-32.26zm22.78-2.2c-12.22 3.45-24.81 7.87-34 17.02-6.49 6.59-13.15 13.4-17.24 21.8-8.88 19.15-2.53 40.77 3.35 59.82 10.01 19.17 28.93 31.11 43.91 45.96 2.17 9.17 13.81 9.09 19.19 15.7 3.27-1.87 6.69-3.46 10.14-4.97-8.8-12.05-19.04-22.86-29.06-33.85-3.78-7.63-7.23-15.58-12.94-22.05-2.48-2.23-1.73-5.78-1.56-8.72 5.3-4.26 10.5 2.15 15.51 3.66 2.87-1 0.28-4.26 0.27-6.36-1.53-3.94 3.31-7.05 6.78-6.88 3.54 1.13 6.05 4.11 9.07 6.15-0.19-2.7-0.35-5.42-1.11-8.03 1.75-1.54 3.81-2.52 6.01-3.24 2.42 1.65 4.71 3.82 7.7 4.31-0.06-3.98 1.22-7.98 5.42-9.15 1.57 0.94 3.37 1.4 4.96 2.32 1.94-2.68 4.13-8.23 8.3-5.61 5.45 5.57 1.83 14.32 5.34 20.72 5 17.3 1 35.33 1.59 52.78 4.16-0.42 8.07-2.15 11.8-3.96 3.53-18.05 7.56-36.02 10.75-54.19 5.38-26.83-5.35-56.8-27.47-73.2-9.32-6.59-21-8.25-32-10.01-4.84-0.92-9.92-1.49-14.71-0.02zm29.25 86.26c-3.75 1.77-8.15-0.39-12.11 0.73 2.89 1.94 4.13 5.58 2.59 8.8-5.41 2.54-10.34-2.13-14.23-5.33-0.16 3.21-0.09 6.43-0.44 9.62-3.65 4.05-8.87 1.51-12.88-0.45 2.81 5.76 6.86 10.82 9.27 16.8 7.44 13.66 21.94 22.18 28.07 36.74 4.78-2.41 9.88-4.32 14.24-7.47 0.87-3.25 0.11-6.73 0.9-10.01 2.24-9.3-0.17-18.89 0.85-28.3 0.79-7.27-1.79-14.26-2.58-21.4-0.4-2.55-0.22-5.48-2.55-7.16-4.5 1.18-8.94 3.02-11.13 7.43zm38.03 60.9c-2.09-0.15-3.98-2.43-6.1-1.09-12.86 5.56-25.26 12.12-37.85 18.23-5.75 1.82-10.64 6.47-13.02 11.96 4.9-1.21 11.69-4.02 15.23 1.19-1.6 4.42-6.18 7.18-7.22 11.94 3.99-0.5 7.83-2.55 11.91-2.04 2.74 0.32 2.83 4.34 0.82 5.72-2.87 3.6-8.06 8.36-4.93 13.25 5.66-2.57 12.23-0.28 17.26-4.89 9.31-5.67 20.32-7.64 29.46-13.62 6.21-1.73 10.92-6.37 14.48-11.57-2.43 0.28-4.71 1.15-7.02 1.87-3-0.07-4.42-3.18-5.16-5.65 2.57-3.52 6.71-5.8 8.38-9.93-4.84-0.09-11.47 2.43-13.27-4.06 3.35-3.98 6.78-8.57 6.03-14.11-3.27-0.05-6.01 1.8-9 2.8z"/>
		</g>
		<path class="s0" d="m238.04 91.76c4.96-0.32 10.71-3.13 15.04 0.55-5.09 5.93-13.53 5.68-20.58 7.08-4.3 0.99-8.77-0.56-11.39-4.1 4.25-5.1 11.29-2.26 16.93-3.53z"/>
		<path class="s0" d="m14.85 104.35c4.59-3.62 10.84-2.15 16.17-1.6 5.69 0.99 11.92 0.49 17.07 3.45-3.52 5.33-10.67 3.19-15.95 2.62-5.76-1.12-13.6 1.56-17.29-4.47z"/>
		<path class="s0" d="m231.08 139.28c3.94-4.19 9.87-0.68 14.59-0.15 6.1-0.3 12.14 1.72 18.19 0.36 2.54-0.7 4.27 1.73 6.17 2.94-4.4 4.3-11.18 2.39-16.69 3.75-7.62-0.89-16.73-0.64-22.26-6.9z"/>
		<path class="s0" d="m37.56 163.28c3.85-0.62 11.25-2.32 10.97 3.83-8.56 1.44-20.51 6.05-27.13-1.67 5.02-2.78 10.81-0.67 16.16-2.16z"/>
		<path class="s0" d="m228.99 188.37c2.95-2.76 7.41-2.31 10.43 0.1 5.57 3.96 12.36 5.46 19.08 5.87 1.97-0.2 5.09 2.23 3.37 4.13-6.05 4-13.37 0.96-19.69-0.66-4.96-2.09-10.24-4.77-13.19-9.44z"/>
		<path class="s0" d="m58.16 213.97c4.79-2.48 8.86-6.07 13.38-8.96 1.12 0.87 2.35 1.59 3.6 2.27-4.27 7.38-12.37 11.27-19.72 14.91-3.26 1.8-7.1 1.07-9.37-1.87 3.33-3.34 8.1-4.17 12.11-6.35z"/>
		<path class="s0" d="m81.29 254.47c5.19-8.52 9.34-18.37 18.21-23.78q1 1.62 2.61 2.63c-3.69 6.97-9.19 12.82-12.56 20.01-1.25 3.48-6.23 4.42-8.26 1.14z"/>
	</g>
</svg>